ModelForces
version=1
nRows=4
nColumns=203
inDegrees=no

This file contains the forces exerted on a model during a simulation.

A force is a generalized force, meaning that it can be either a force (N) or a torque (Nm).

Units are S.I. units (second, meters, Newtons, ...)
Angles are in degrees.

endheader
time	glut_med1_r	glut_med2_r	glut_med3_r	glut_min1_r	glut_min2_r	glut_min3_r	semimem_r	semiten_r	bifemlh_r	bifemsh_r	sar_r	add_long_r	add_brev_r	add_mag1_r	add_mag2_r	add_mag3_r	tfl_r	pect_r	grac_r	glut_max1_r	glut_max2_r	glut_max3_r	iliacus_r	psoas_r	quad_fem_r	gem_r	peri_r	rect_fem_r	vas_med_r	vas_int_r	vas_lat_r	med_gas_r	lat_gas_r	soleus_r	tib_post_r	flex_dig_r	flex_hal_r	tib_ant_r	per_brev_r	per_long_r	per_tert_r	ext_dig_r	ext_hal_r	glut_med1_l	glut_med2_l	glut_med3_l	glut_min1_l	glut_min2_l	glut_min3_l	semimem_l	semiten_l	bifemlh_l	bifemsh_l	sar_l	add_long_l	add_brev_l	add_mag1_l	add_mag2_l	add_mag3_l	tfl_l	pect_l	grac_l	glut_max1_l	glut_max2_l	glut_max3_l	iliacus_l	psoas_l	quad_fem_l	gem_l	peri_l	rect_fem_l	vas_med_l	vas_int_l	vas_lat_l	med_gas_l	lat_gas_l	soleus_l	tib_post_l	flex_dig_l	flex_hal_l	tib_ant_l	per_brev_l	per_long_l	per_tert_l	ext_dig_l	ext_hal_l	ercspn_r	ercspn_l	intobl_r	intobl_l	extobl_r	extobl_l	femur_lat_meniscii_l.femur_lat_l.force.X	femur_lat_meniscii_l.femur_lat_l.force.Y	femur_lat_meniscii_l.femur_lat_l.force.Z	femur_lat_meniscii_l.femur_lat_l.torque.X	femur_lat_meniscii_l.femur_lat_l.torque.Y	femur_lat_meniscii_l.femur_lat_l.torque.Z	femur_lat_meniscii_l.meniscus_lat_l.force.X	femur_lat_meniscii_l.meniscus_lat_l.force.Y	femur_lat_meniscii_l.meniscus_lat_l.force.Z	femur_lat_meniscii_l.meniscus_lat_l.torque.X	femur_lat_meniscii_l.meniscus_lat_l.torque.Y	femur_lat_meniscii_l.meniscus_lat_l.torque.Z	femur_med_meniscii_l.femur_med_l.force.X	femur_med_meniscii_l.femur_med_l.force.Y	femur_med_meniscii_l.femur_med_l.force.Z	femur_med_meniscii_l.femur_med_l.torque.X	femur_med_meniscii_l.femur_med_l.torque.Y	femur_med_meniscii_l.femur_med_l.torque.Z	femur_med_meniscii_l.meniscus_med_l.force.X	femur_med_meniscii_l.meniscus_med_l.force.Y	femur_med_meniscii_l.meniscus_med_l.force.Z	femur_med_meniscii_l.meniscus_med_l.torque.X	femur_med_meniscii_l.meniscus_med_l.torque.Y	femur_med_meniscii_l.meniscus_med_l.torque.Z	femur_lat_meniscii_r.femur_lat_r.force.X	femur_lat_meniscii_r.femur_lat_r.force.Y	femur_lat_meniscii_r.femur_lat_r.force.Z	femur_lat_meniscii_r.femur_lat_r.torque.X	femur_lat_meniscii_r.femur_lat_r.torque.Y	femur_lat_meniscii_r.femur_lat_r.torque.Z	femur_lat_meniscii_r.meniscus_lat_r.force.X	femur_lat_meniscii_r.meniscus_lat_r.force.Y	femur_lat_meniscii_r.meniscus_lat_r.force.Z	femur_lat_meniscii_r.meniscus_lat_r.torque.X	femur_lat_meniscii_r.meniscus_lat_r.torque.Y	femur_lat_meniscii_r.meniscus_lat_r.torque.Z	femur_med_meniscii_r.femur_med_r.force.X	femur_med_meniscii_r.femur_med_r.force.Y	femur_med_meniscii_r.femur_med_r.force.Z	femur_med_meniscii_r.femur_med_r.torque.X	femur_med_meniscii_r.femur_med_r.torque.Y	femur_med_meniscii_r.femur_med_r.torque.Z	femur_med_meniscii_r.meniscus_med_r.force.X	femur_med_meniscii_r.meniscus_med_r.force.Y	femur_med_meniscii_r.meniscus_med_r.force.Z	femur_med_meniscii_r.meniscus_med_r.torque.X	femur_med_meniscii_r.meniscus_med_r.torque.Y	femur_med_meniscii_r.meniscus_med_r.torque.Z	femur_med_tibia_l.tibia_upper_l.force.X	femur_med_tibia_l.tibia_upper_l.force.Y	femur_med_tibia_l.tibia_upper_l.force.Z	femur_med_tibia_l.tibia_upper_l.torque.X	femur_med_tibia_l.tibia_upper_l.torque.Y	femur_med_tibia_l.tibia_upper_l.torque.Z	femur_med_tibia_l.femur_med_l.force.X	femur_med_tibia_l.femur_med_l.force.Y	femur_med_tibia_l.femur_med_l.force.Z	femur_med_tibia_l.femur_med_l.torque.X	femur_med_tibia_l.femur_med_l.torque.Y	femur_med_tibia_l.femur_med_l.torque.Z	femur_lat_tibia_l.tibia_upper_l.force.X	femur_lat_tibia_l.tibia_upper_l.force.Y	femur_lat_tibia_l.tibia_upper_l.force.Z	femur_lat_tibia_l.tibia_upper_l.torque.X	femur_lat_tibia_l.tibia_upper_l.torque.Y	femur_lat_tibia_l.tibia_upper_l.torque.Z	femur_lat_tibia_l.femur_lat_l.force.X	femur_lat_tibia_l.femur_lat_l.force.Y	femur_lat_tibia_l.femur_lat_l.force.Z	femur_lat_tibia_l.femur_lat_l.torque.X	femur_lat_tibia_l.femur_lat_l.torque.Y	femur_lat_tibia_l.femur_lat_l.torque.Z	femur_med_tibia_r.tibia_upper_r.force.X	femur_med_tibia_r.tibia_upper_r.force.Y	femur_med_tibia_r.tibia_upper_r.force.Z	femur_med_tibia_r.tibia_upper_r.torque.X	femur_med_tibia_r.tibia_upper_r.torque.Y	femur_med_tibia_r.tibia_upper_r.torque.Z	femur_med_tibia_r.femur_med_r.force.X	femur_med_tibia_r.femur_med_r.force.Y	femur_med_tibia_r.femur_med_r.force.Z	femur_med_tibia_r.femur_med_r.torque.X	femur_med_tibia_r.femur_med_r.torque.Y	femur_med_tibia_r.femur_med_r.torque.Z	femur_lat_tibia_r.tibia_upper_r.force.X	femur_lat_tibia_r.tibia_upper_r.force.Y	femur_lat_tibia_r.tibia_upper_r.force.Z	femur_lat_tibia_r.tibia_upper_r.torque.X	femur_lat_tibia_r.tibia_upper_r.torque.Y	femur_lat_tibia_r.tibia_upper_r.torque.Z	femur_lat_tibia_r.femur_lat_r.force.X	femur_lat_tibia_r.femur_lat_r.force.Y	femur_lat_tibia_r.femur_lat_r.force.Z	femur_lat_tibia_r.femur_lat_r.torque.X	femur_lat_tibia_r.femur_lat_r.torque.Y	femur_lat_tibia_r.femur_lat_r.torque.Z	aACL_R	pACL_R	aPCL_R	pPCL_R	aMCL_R	mMCL_R	pMCL_R	aLCL_R	mLCL_R	pLCL_R	aPCL_L	pPCL_L	aMCL_L	aLCL_L
      0.15803504	     11.82687897	      8.58593071	      9.23771497	      3.95965269	      4.59536949	      4.99767127	      0.00000000	    161.54767224	    134.67630875	    283.51268681	    130.37130023	      8.54795914	      6.14414271	      4.41270465	      3.74607428	      6.32816652	      4.52546800	      3.34292168	     97.21718443	      5.54446608	      8.43507752	      6.34160967	     27.99029154	     19.03456362	      5.44816667	      3.72914345	      7.13297441	     87.00574269	    179.34531034	     36.70601288	    319.05072924	      0.00000000	      0.00000000	      0.00000000	      0.00000000	      0.00000000	      0.00000000	     46.46149164	      2.31378303	      3.60877613	     35.22793214	     43.45635889	     10.39272433	     11.82687897	      8.58593071	      9.23771497	      3.95965269	      4.59536949	      4.99767127	     14.72574495	      6.37387649	     12.74249704	     10.84422429	      2.25899903	      8.54795914	      6.14414271	      4.41270465	      3.74607428	      6.32816652	      5.54779360	      3.34292168	      2.33312013	      5.54446608	      8.43507752	      6.34160967	     27.99029154	     19.03456362	      5.44816667	      3.72914345	      7.13297441	     17.58799937	     10.10283543	     11.67765367	     12.54170076	     25.42039661	     11.81383084	     54.27011615	     52.04263235	      5.76070742	      5.65452499	     13.71927738	      7.35298798	     19.00005138	      2.94273654	      8.97540451	      2.80589777	     37.27325161	     37.27325161	     13.87959376	     13.87959376	     31.20593063	     31.20593063	      2.76307435	     50.99597937	     -9.56042239	      5.21997485	     -0.02578839	      1.48581788	     -2.76307435	    -50.99597937	      9.56042239	     -1.74637766	      0.02558040	     -0.48301696	     -3.31599387	     20.97615968	     -3.40468921	      0.94473225	     -0.02138609	     -1.00501789	      3.31599387	    -20.97615968	      3.40468921	      0.28075727	      0.00368718	     -0.29758878	     62.50451902	    129.95219948	     -5.53985108	     -0.62616581	      1.33781508	     23.74236544	    -62.50451902	   -129.95219948	      5.53985108	      3.21438196	     -1.39803585	      4.04707892	    130.36975422	    166.56985791	    -21.36893692	     12.03222172	     -2.87005339	     50.77701365	   -130.36975422	   -166.56985791	     21.36893692	     -3.11416177	      2.99026864	      4.56825343	      0.00000000	      0.00000000	      0.00000000	      0.00000000	      0.00000000	      0.00000000	      0.00000000	      0.00000000	      0.00000000	      0.00000000	      0.00000000	      0.00000000	      0.00000000	      0.00000000	      0.00000000	      0.00000000	      0.00000000	      0.00000000	      0.00000000	      0.00000000	      0.00000000	      0.00000000	      0.00000000	      0.00000000	   -561.29337508	   -731.97637161	     96.24932361	    -13.58500852	     12.71601225	     17.42919627	    561.29337508	    731.97637161	    -96.24932361	     53.69526400	    -12.09204518	    221.22546602	      0.00000000	      0.00000000	      0.00000000	      0.00000000	      0.00000000	      0.00000000	      0.00000000	      0.00000000	      0.00000000	      0.00000000	      0.00000000	      0.00000000	    -11.89928353	     -8.29402067	    715.74738512	    384.57767483	     71.57839250	     50.93251102	      0.00000000	      0.00000000	      0.00000000	      0.00000000	      0.00000000	      0.00000000	      0.00000001	      0.00000000
      0.15808804	     11.82386822	      8.58388632	      9.23548925	      3.95874821	      4.59437899	      4.99640178	      0.00000000	    161.33256578	    134.45086709	    282.43907860	    130.19221681	      8.54590056	      6.14275229	      4.41165826	      3.74516555	      6.32651988	      4.53053953	      3.34215259	     97.05991855	      5.54314017	      8.43305597	      6.34006678	     27.98651893	     19.03026065	      5.44689519	      3.72852055	      7.13095226	     86.99735437	     95.51065278	     36.53970575	    156.56309096	      0.00000000	      0.00000000	      0.00000000	      0.00000000	      0.00000000	      0.00000000	     46.48611019	      2.31000270	      3.60600190	     35.24162652	     43.48012537	     10.39848718	     11.82386822	      8.58388632	      9.23548925	      3.95874821	      4.59437899	      4.99640178	     14.72165752	      6.37226497	     12.73900365	     10.84169049	      2.25848542	      8.54590056	      6.14275229	      4.41165826	      3.74516555	      6.32651988	      5.54677178	      3.34215259	      2.33258038	      5.54314017	      8.43305597	      6.34006678	     27.98651893	     19.03026065	      5.44689519	      3.72852055	      7.13095226	     17.58320554	     10.10035740	     11.67474475	     12.53857707	     25.41311282	     11.81043790	     54.25468234	     52.03592950	      5.75898666	      5.65284898	     13.71560163	      7.35092774	     18.99567006	      2.94207376	      8.97287360	      2.80511497	     37.26471846	     37.26471846	     13.87616415	     13.87616415	     31.20281720	     31.20281720	      2.76307435	     50.99597937	     -9.56042239	      5.21997485	     -0.02578839	      1.48581788	     -2.76307435	    -50.99597937	      9.56042239	     -1.74637766	      0.02558040	     -0.48301696	     -3.31599387	     20.97615968	     -3.40468921	      0.94473225	     -0.02138609	     -1.00501789	      3.31599387	    -20.97615968	      3.40468921	      0.28075727	      0.00368718	     -0.29758878	     62.20091398	    129.38600532	     -6.00647277	     -0.42351687	      1.32465417	     23.62477090	    -62.20091398	   -129.38600532	      6.00647277	      3.19349613	     -1.37235875	      4.03254866	    128.74381173	    163.67933951	    -21.66038978	     12.08659713	     -2.83635811	     50.15248641	   -128.74381173	   -163.67933951	     21.66038978	     -3.06269096	      2.96880960	      4.48418733	      0.00000000	      0.00000000	      0.00000000	      0.00000000	      0.00000000	      0.00000000	      0.00000000	      0.00000000	      0.00000000	      0.00000000	      0.00000000	      0.00000000	      0.00000000	      0.00000000	      0.00000000	      0.00000000	      0.00000000	      0.00000000	      0.00000000	      0.00000000	      0.00000000	      0.00000000	      0.00000000	      0.00000000	   -558.21666461	   -724.05019944	     97.62750293	    -13.47180102	     12.71248902	     17.20911783	    558.21666461	    724.05019944	    -97.62750293	     54.10066623	    -12.04522987	    220.04819234	      0.00000000	      0.00000000	      0.00000000	      0.00000000	      0.00000000	      0.00000000	      0.00000000	      0.00000000	      0.00000000	      0.00000000	      0.00000000	      0.00000000	    -11.26053205	     -7.64172628	    716.79706646	    385.26926424	     72.48449470	     51.71990626	      0.00000000	      0.00000000	      0.00000000	      0.00000000	      0.00000000	      0.00000000	      0.00000001	      0.00000000
      0.15822617	     11.81602997	      8.57856388	      9.22969475	      3.95639342	      4.59180031	      4.99309676	      0.00000000	    160.85460245	    133.92790328	    280.21060266	    129.81910531	      8.54054122	      6.13913235	      4.40893407	      3.74279977	      6.32223295	      4.54328068	      3.34015029	     96.72358337	      5.53968826	      8.42779303	      6.33605000	     27.97669739	     19.01905841	      5.44358496	      3.72689893	      7.12568734	     87.14076595	     59.71849499	     36.34839309	     78.83747079	      0.00000000	      0.00000000	      0.00000000	      0.00000000	      0.00000000	      0.00000000	     46.53746218	      2.30106278	      3.59970596	     35.26580798	     43.53856587	     10.41248429	     11.81602997	      8.57856388	      9.22969475	      3.95639342	      4.59180031	      4.99309676	     14.71101564	      6.36806950	     12.72990857	     10.83509387	      2.25714827	      8.54054122	      6.13913235	      4.40893407	      3.74279977	      6.32223295	      5.54411153	      3.34015029	      2.33117514	      5.53968826	      8.42779303	      6.33605000	     27.97669739	     19.01905841	      5.44358496	      3.72689893	      7.12568734	     17.57072482	     10.09390612	     11.66717171	     12.53044492	     25.39414780	     11.80160364	     54.21449853	     52.01847900	      5.75450631	      5.64848524	     13.70603193	      7.34556379	     18.98426313	      2.94034827	      8.96628373	      2.80307675	     37.24250269	     37.24250269	     13.86723543	     13.86723543	     31.19471179	     31.19471179	      2.76307435	     50.99597937	     -9.56042239	      5.21997485	     -0.02578839	      1.48581788	     -2.76307435	    -50.99597937	      9.56042239	     -1.74637766	      0.02558040	     -0.48301696	     -3.31599387	     20.97615968	     -3.40468921	      0.94473225	     -0.02138609	     -1.00501789	      3.31599387	    -20.97615968	      3.40468921	      0.28075727	      0.00368718	     -0.29758878	     64.16641116	    126.89102476	     -6.91581440	     -0.00255213	      1.35546224	     24.45184561	    -64.16641116	   -126.89102476	      6.91581440	      3.12261860	     -1.38701827	      3.91781253	    132.35854826	    159.53138741	    -23.58079270	     12.78737654	     -2.93395943	     51.64782766	   -132.35854826	   -159.53138741	     23.58079270	     -3.02111571	      3.10236468	      4.30932554	      0.00000000	      0.00000000	      0.00000000	      0.00000000	      0.00000000	      0.00000000	      0.00000000	      0.00000000	      0.00000000	      0.00000000	      0.00000000	      0.00000000	      0.00000000	      0.00000000	      0.00000000	      0.00000000	      0.00000000	      0.00000000	      0.00000000	      0.00000000	      0.00000000	      0.00000000	      0.00000000	      0.00000000	   -555.28860241	   -698.12949068	    100.89402922	    -13.08371842	     12.77629034	     16.35738818	    555.28860241	    698.12949068	   -100.89402922	     54.91981686	    -12.02052700	    219.12462686	      0.00000000	      0.00000000	      0.00000000	      0.00000000	      0.00000000	      0.00000000	      0.00000000	      0.00000000	      0.00000000	      0.00000000	      0.00000000	      0.00000000	     -8.57453900	     -5.53221908	    717.39747455	    381.50291212	     73.28362699	     51.76573756	      0.00000000	      0.00000000	      0.00000000	      0.00000000	      0.00000000	      0.00000000	      0.00000001	      0.00000000
      0.15855458	     11.79745399	      8.56594999	      9.21596224	      3.95081252	      4.58568895	      4.98526414	      0.00000000	    160.18500119	    133.10390422	    277.84049859	    129.39468697	      8.52783998	      6.13055294	      4.40247790	      3.73719311	      6.31207325	      4.56677461	      3.33540484	     96.30179467	      5.53150757	      8.41532037	      6.32653066	     27.95342202	     18.99251112	      5.43573980	      3.72305609	      7.11320752	     87.73677729	     52.57123267	     36.40563172	     53.96020017	      0.00000000	      0.00000000	      0.00000000	      0.00000000	      0.00000000	      0.00000000	     46.60211986	      2.28488282	      3.59009967	     35.30465630	     43.67070485	     10.44422082	     11.79745399	      8.56594999	      9.21596224	      3.95081252	      4.58568895	      4.98526414	     14.68579205	      6.35812664	     12.70835216	     10.81946009	      2.25397917	      8.52783998	      6.13055294	      4.40247790	      3.73719311	      6.31207325	      5.53780700	      3.33540484	      2.32784475	      5.53150757	      8.41532037	      6.32653066	     27.95342202	     18.99251112	      5.43573980	      3.72305609	      7.11320752	     17.54114443	     10.07861759	     11.64922480	     12.51117327	     25.34918934	     11.78066129	     54.11924842	     51.97712199	      5.74388535	      5.63814141	     13.68335160	      7.33285023	     18.95722666	      2.93625914	      8.95066132	      2.79824476	     37.18985099	     37.18985099	     13.84607518	     13.84607518	     31.17550360	     31.17550360	      2.76307435	     50.99597937	     -9.56042239	      5.21997485	     -0.02578839	      1.48581788	     -2.76307435	    -50.99597937	      9.56042239	     -1.74637766	      0.02558040	     -0.48301696	     -3.31599387	     20.97615968	     -3.40468921	      0.94473225	     -0.02138609	     -1.00501789	      3.31599387	    -20.97615968	      3.40468921	      0.28075727	      0.00368718	     -0.29758878	     70.06695973	    120.49820107	     -8.25495750	      0.67084298	      1.46822953	     26.92670565	    -70.06695973	   -120.49820107	      8.25495750	      2.95717931	     -1.48601080	      3.60790101	    144.37458386	    153.67344086	    -26.69902070	     13.92270808	     -3.20381981	     56.54886730	   -144.37458386	   -153.67344086	     26.69902070	     -2.94657633	      3.41039802	      3.99342964	      0.00000000	      0.00000000	      0.00000000	      0.00000000	      0.00000000	      0.00000000	      0.00000000	      0.00000000	      0.00000000	      0.00000000	      0.00000000	      0.00000000	      0.00000000	      0.00000000	      0.00000000	      0.00000000	      0.00000000	      0.00000000	      0.00000000	      0.00000000	      0.00000000	      0.00000000	      0.00000000	      0.00000000	   -552.29850440	   -645.51861088	    103.23681982	    -12.21951831	     12.79678542	     14.59730893	    552.29850440	    645.51861088	   -103.23681982	     54.82557404	    -11.97889562	    218.45155867	      0.00000000	      0.00000000	      0.00000000	      0.00000000	      0.00000000	      0.00000000	      0.00000000	      0.00000000	      0.00000000	      0.00000000	      0.00000000	      0.00000000	     -3.56104123	     -2.02858782	    717.53709509	    370.47105296	     72.50156154	     49.34299548	      0.00000000	      0.00000000	      0.00000000	      0.00000000	      0.00000000	      0.00000000	      0.00000001	      0.00000000
